<svg xmlns="http://www.w3.org/2000/svg" xmlns:xlink="http://www.w3.org/1999/xlink" width="500" zoomAndPan="magnify" viewBox="0 0 375 374.999991" height="500" preserveAspectRatio="xMidYMid meet" version="1.0"><defs><g/><clipPath id="5a143ced4e"><path d="M 27.746094 61 L 347.246094 61 L 347.246094 319.109375 L 27.746094 319.109375 Z M 27.746094 61 " clip-rule="nonzero"/></clipPath><clipPath id="8df2fc4af9"><path d="M 83.0625 223.34375 L 295 223.34375 L 295 279.46875 L 83.0625 279.46875 Z M 83.0625 223.34375 " clip-rule="nonzero"/></clipPath><clipPath id="ae3eac7b79"><path d="M 100.3125 223.34375 L 277.648438 223.34375 C 282.222656 223.34375 286.609375 225.160156 289.84375 228.394531 C 293.082031 231.628906 294.898438 236.015625 294.898438 240.59375 L 294.898438 262.21875 C 294.898438 266.792969 293.082031 271.179688 289.84375 274.414062 C 286.609375 277.652344 282.222656 279.46875 277.648438 279.46875 L 100.3125 279.46875 C 95.734375 279.46875 91.347656 277.652344 88.113281 274.414062 C 84.878906 271.179688 83.0625 266.792969 83.0625 262.21875 L 83.0625 240.59375 C 83.0625 236.015625 84.878906 231.628906 88.113281 228.394531 C 91.347656 225.160156 95.734375 223.34375 100.3125 223.34375 Z M 100.3125 223.34375 " clip-rule="nonzero"/></clipPath><clipPath id="b7009c75c1"><path d="M 222.382812 235.765625 L 252.847656 235.765625 L 252.847656 266.230469 L 222.382812 266.230469 Z M 222.382812 235.765625 " clip-rule="nonzero"/></clipPath></defs><rect x="-37.5" width="450" fill="#ffffff" y="-37.499999" height="449.999989" fill-opacity="1"/><rect x="-37.5" width="450" fill="#a29b9b" y="-37.499999" height="449.999989" fill-opacity="1"/><g clip-path="url(#5a143ced4e)"><path fill="#000000" d="M 63.667969 209.222656 C 73.023438 209.222656 80.6875 216.886719 80.6875 226.246094 L 80.6875 296.699219 C 80.6875 306.054688 73.023438 313.71875 63.667969 313.71875 C 54.3125 313.71875 46.644531 306.054688 46.644531 296.699219 L 46.644531 226.246094 C 46.644531 225.792969 46.683594 225.378906 46.683594 224.929688 C 46.683594 223.464844 46.644531 222 46.644531 220.53125 C 46.644531 8.195312 328.34375 8.195312 328.34375 220.53125 C 328.34375 222 328.308594 223.464844 328.269531 224.929688 C 328.308594 225.378906 328.34375 225.792969 328.34375 226.246094 L 328.34375 296.699219 C 328.34375 306.054688 320.679688 313.71875 311.324219 313.71875 C 301.96875 313.71875 294.300781 306.054688 294.300781 296.699219 L 294.300781 226.246094 C 294.300781 216.886719 301.96875 209.222656 311.324219 209.222656 C 312.375 209.222656 313.390625 209.335938 314.40625 209.523438 C 281.863281 74.59375 93.277344 74.027344 60.585938 209.523438 C 61.5625 209.335938 62.613281 209.222656 63.667969 209.222656 Z M 187.476562 187.503906 L 187.890625 187.503906 L 188.003906 187.542969 L 188.265625 187.542969 L 188.378906 187.578125 L 188.527344 187.617188 L 188.640625 187.617188 L 188.753906 187.65625 L 188.867188 187.691406 L 189.015625 187.730469 L 189.128906 187.769531 L 189.242188 187.804688 L 189.355469 187.84375 L 189.46875 187.917969 L 189.582031 187.957031 L 189.691406 187.992188 L 189.804688 188.066406 L 189.917969 188.105469 L 190.03125 188.179688 L 190.144531 188.257812 L 190.21875 188.292969 L 190.332031 188.367188 L 190.445312 188.445312 L 190.519531 188.519531 L 190.746094 188.667969 L 190.820312 188.746094 L 190.894531 188.820312 L 191.007812 188.894531 L 191.082031 189.007812 L 191.160156 189.082031 L 191.273438 189.15625 L 191.347656 189.269531 L 191.421875 189.347656 L 191.496094 189.457031 L 191.570312 189.535156 L 191.648438 189.644531 L 191.722656 189.757812 L 191.761719 189.835938 L 191.796875 189.835938 L 191.835938 189.945312 L 191.984375 190.171875 L 192.023438 190.285156 L 192.097656 190.398438 L 192.136719 190.511719 L 192.171875 190.625 L 192.25 190.734375 L 192.285156 190.847656 L 192.324219 190.960938 L 192.359375 191.074219 L 192.398438 191.1875 L 192.4375 191.335938 L 192.4375 191.449219 L 192.472656 191.5625 L 192.511719 191.675781 L 192.511719 191.824219 L 192.550781 191.9375 L 192.550781 192.089844 L 192.585938 192.203125 L 192.585938 314.433594 L 192.550781 314.546875 L 192.550781 314.660156 L 192.511719 314.808594 L 192.511719 314.921875 L 192.472656 315.035156 L 192.4375 315.183594 L 192.4375 315.296875 L 192.359375 315.523438 L 192.324219 315.671875 L 192.285156 315.785156 L 192.25 315.898438 L 192.171875 316.011719 L 192.136719 316.125 L 192.097656 316.238281 L 192.023438 316.347656 L 191.984375 316.460938 L 191.910156 316.574219 L 191.835938 316.648438 L 191.796875 316.761719 L 191.761719 316.761719 L 191.722656 316.875 L 191.648438 316.988281 L 191.570312 317.0625 L 191.496094 317.175781 L 191.421875 317.25 L 191.347656 317.363281 L 191.160156 317.550781 L 191.082031 317.625 L 191.007812 317.703125 L 190.894531 317.777344 L 190.820312 317.890625 L 190.746094 317.964844 L 190.632812 318.039062 L 190.519531 318.117188 L 190.445312 318.191406 L 190.332031 318.226562 L 190.21875 318.304688 L 190.144531 318.378906 L 190.03125 318.453125 L 189.917969 318.492188 L 189.804688 318.566406 L 189.691406 318.605469 L 189.582031 318.679688 L 189.46875 318.714844 L 189.242188 318.792969 L 189.128906 318.867188 L 189.015625 318.90625 L 188.867188 318.941406 L 188.753906 318.941406 L 188.640625 318.980469 L 188.527344 319.015625 L 188.378906 319.054688 L 188.265625 319.054688 L 188.152344 319.09375 L 187.890625 319.09375 L 187.738281 319.128906 L 187.25 319.128906 L 187.101562 319.09375 L 186.835938 319.09375 L 186.726562 319.054688 L 186.613281 319.054688 L 186.460938 319.015625 L 186.347656 318.980469 L 186.238281 318.941406 L 186.085938 318.941406 L 185.972656 318.90625 L 185.859375 318.867188 L 185.746094 318.792969 L 185.636719 318.753906 L 185.523438 318.714844 L 185.410156 318.679688 L 185.296875 318.605469 L 185.183594 318.566406 L 185.070312 318.492188 L 184.957031 318.453125 L 184.847656 318.378906 L 184.769531 318.304688 L 184.660156 318.226562 L 184.546875 318.191406 L 184.46875 318.117188 L 184.359375 318.039062 L 184.246094 317.964844 L 184.167969 317.890625 L 184.058594 317.777344 L 183.980469 317.703125 L 183.90625 317.625 L 183.832031 317.550781 L 183.792969 317.550781 L 183.71875 317.4375 L 183.644531 317.363281 L 183.570312 317.25 L 183.492188 317.175781 L 183.417969 317.0625 L 183.34375 316.988281 L 183.269531 316.875 L 183.191406 316.761719 L 183.15625 316.648438 L 183.082031 316.574219 L 183.003906 316.460938 L 182.96875 316.347656 L 182.890625 316.238281 L 182.855469 316.125 L 182.816406 316.011719 L 182.742188 315.898438 L 182.703125 315.785156 L 182.667969 315.671875 L 182.628906 315.523438 L 182.589844 315.410156 L 182.554688 315.296875 L 182.515625 315.183594 L 182.515625 315.035156 L 182.480469 314.921875 L 182.480469 314.808594 L 182.441406 314.660156 L 182.441406 314.546875 L 182.402344 314.433594 L 182.402344 192.203125 L 182.441406 192.089844 L 182.441406 191.9375 L 182.480469 191.824219 L 182.480469 191.675781 L 182.515625 191.5625 L 182.515625 191.449219 L 182.554688 191.335938 L 182.589844 191.1875 L 182.667969 190.960938 L 182.703125 190.847656 L 182.742188 190.734375 L 182.816406 190.625 L 182.855469 190.511719 L 182.890625 190.398438 L 182.96875 190.285156 L 183.003906 190.171875 L 183.082031 190.058594 L 183.15625 189.945312 L 183.191406 189.835938 L 183.269531 189.757812 L 183.34375 189.644531 L 183.417969 189.535156 L 183.492188 189.457031 L 183.570312 189.347656 L 183.644531 189.269531 L 183.71875 189.15625 L 183.792969 189.082031 L 183.832031 189.082031 L 183.90625 189.007812 L 183.980469 188.894531 L 184.058594 188.820312 L 184.167969 188.746094 L 184.246094 188.667969 L 184.359375 188.59375 L 184.46875 188.519531 L 184.546875 188.445312 L 184.660156 188.367188 L 184.769531 188.292969 L 184.847656 188.257812 L 184.957031 188.179688 L 185.070312 188.105469 L 185.183594 188.066406 L 185.296875 187.992188 L 185.410156 187.957031 L 185.523438 187.917969 L 185.636719 187.84375 L 185.746094 187.804688 L 185.859375 187.769531 L 186.085938 187.691406 L 186.238281 187.65625 L 186.347656 187.617188 L 186.460938 187.617188 L 186.613281 187.578125 L 186.726562 187.542969 L 186.988281 187.542969 L 187.101562 187.503906 Z M 103.722656 237.855469 C 100.902344 237.855469 98.613281 240.148438 98.613281 242.964844 L 98.613281 259.988281 C 98.613281 262.765625 100.902344 265.058594 103.722656 265.058594 C 106.503906 265.058594 108.792969 262.765625 108.792969 259.988281 L 108.792969 242.964844 C 108.792969 240.148438 106.503906 237.855469 103.722656 237.855469 Z M 271.269531 237.855469 C 274.050781 237.855469 276.339844 240.148438 276.339844 242.964844 L 276.339844 259.988281 C 276.339844 262.765625 274.050781 265.058594 271.269531 265.058594 C 268.449219 265.058594 266.195312 262.765625 266.195312 259.988281 L 266.195312 242.964844 C 266.195312 240.148438 268.449219 237.855469 271.269531 237.855469 Z M 120.820312 225.003906 C 118.039062 225.003906 115.746094 227.296875 115.746094 230.078125 L 115.746094 272.835938 C 115.746094 275.65625 118.039062 277.949219 120.820312 277.949219 C 123.636719 277.949219 125.929688 275.65625 125.929688 272.835938 L 125.929688 230.078125 C 125.929688 227.296875 123.636719 225.003906 120.820312 225.003906 Z M 254.132812 225.003906 C 256.953125 225.003906 259.246094 227.296875 259.246094 230.078125 L 259.246094 272.835938 C 259.246094 275.65625 256.953125 277.949219 254.132812 277.949219 C 251.355469 277.949219 249.0625 275.65625 249.0625 272.835938 L 249.0625 230.078125 C 249.0625 227.296875 251.355469 225.003906 254.132812 225.003906 Z M 141.035156 197.425781 C 138.253906 197.425781 135.960938 199.714844 135.960938 202.496094 L 135.960938 304.101562 C 135.960938 306.917969 138.253906 309.210938 141.035156 309.210938 C 143.851562 309.210938 146.144531 306.917969 146.144531 304.101562 L 146.144531 202.496094 C 146.144531 199.714844 143.851562 197.425781 141.035156 197.425781 Z M 233.957031 197.425781 C 236.738281 197.425781 239.027344 199.714844 239.027344 202.496094 L 239.027344 304.101562 C 239.027344 306.917969 236.738281 309.210938 233.957031 309.210938 C 231.136719 309.210938 228.847656 306.917969 228.847656 304.101562 L 228.847656 202.496094 C 228.847656 199.714844 231.136719 197.425781 233.957031 197.425781 Z M 164.253906 206.253906 C 161.472656 206.253906 159.183594 208.546875 159.183594 211.328125 L 159.183594 295.269531 C 159.183594 298.085938 161.472656 300.378906 164.253906 300.378906 C 167.074219 300.378906 169.367188 298.085938 169.367188 295.269531 L 169.367188 211.328125 C 169.367188 208.546875 167.074219 206.253906 164.253906 206.253906 Z M 210.734375 206.253906 C 213.515625 206.253906 215.808594 208.546875 215.808594 211.328125 L 215.808594 295.269531 C 215.808594 298.085938 213.515625 300.378906 210.734375 300.378906 C 207.917969 300.378906 205.625 298.085938 205.625 295.269531 L 205.625 211.328125 C 205.625 208.546875 207.917969 206.253906 210.734375 206.253906 Z M 187.476562 319.128906 Z M 331.6875 293.878906 C 340.21875 293.878906 347.246094 287.941406 347.246094 280.691406 L 347.246094 234.773438 C 347.246094 227.523438 340.21875 221.621094 331.6875 221.621094 C 331.011719 221.621094 330.335938 221.621094 329.699219 221.699219 L 329.699219 293.765625 C 330.335938 293.84375 331.011719 293.878906 331.6875 293.878906 Z M 43.300781 293.878906 C 34.734375 293.878906 27.746094 287.941406 27.746094 280.691406 L 27.746094 234.773438 C 27.746094 227.523438 34.734375 221.621094 43.300781 221.621094 C 43.976562 221.621094 44.652344 221.621094 45.292969 221.699219 L 45.292969 293.765625 C 44.652344 293.84375 43.976562 293.878906 43.300781 293.878906 Z M 43.300781 293.878906 " fill-opacity="1" fill-rule="evenodd"/></g><g clip-path="url(#8df2fc4af9)"><g clip-path="url(#ae3eac7b79)"><path fill="#a29b9b" d="M 83.0625 223.34375 L 294.847656 223.34375 L 294.847656 279.46875 L 83.0625 279.46875 Z M 83.0625 223.34375 " fill-opacity="1" fill-rule="nonzero"/></g></g><g fill="#eb1f12" fill-opacity="0.4"><g transform="translate(91.77109, 266.313695)"><g><path d="M 13.296875 -28.921875 L 19.109375 -28.921875 L 31.421875 0 L 24.8125 0 L 22.1875 -6.4375 L 10.046875 -6.4375 L 7.421875 0 L 0.984375 0 Z M 19.9375 -12.015625 L 16.125 -21.328125 L 12.3125 -12.015625 Z M 19.9375 -12.015625 "/></g></g></g><g fill="#eb1f12" fill-opacity="1"><g transform="translate(89.958433, 264.501038)"><g><path d="M 13.296875 -28.921875 L 19.109375 -28.921875 L 31.421875 0 L 24.8125 0 L 22.1875 -6.4375 L 10.046875 -6.4375 L 7.421875 0 L 0.984375 0 Z M 19.9375 -12.015625 L 16.125 -21.328125 L 12.3125 -12.015625 Z M 19.9375 -12.015625 "/></g></g></g><g fill="#eb1f12" fill-opacity="0.302"><g transform="translate(123.528791, 268.285262)"><g><path d="M 3.4375 -28.703125 L 15.171875 -28.703125 C 16.890625 -28.703125 18.425781 -28.460938 19.78125 -27.984375 C 21.132812 -27.503906 22.28125 -26.828125 23.21875 -25.953125 C 24.164062 -25.078125 24.890625 -24.03125 25.390625 -22.8125 C 25.898438 -21.59375 26.15625 -20.25 26.15625 -18.78125 L 26.15625 -18.703125 C 26.15625 -17.023438 25.851562 -15.554688 25.25 -14.296875 C 24.65625 -13.046875 23.832031 -11.992188 22.78125 -11.140625 C 21.726562 -10.296875 20.492188 -9.660156 19.078125 -9.234375 C 17.671875 -8.816406 16.164062 -8.609375 14.5625 -8.609375 L 9.765625 -8.609375 L 9.765625 0 L 3.4375 0 Z M 14.765625 -14.234375 C 16.347656 -14.234375 17.578125 -14.648438 18.453125 -15.484375 C 19.328125 -16.316406 19.765625 -17.347656 19.765625 -18.578125 L 19.765625 -18.65625 C 19.765625 -20.070312 19.304688 -21.148438 18.390625 -21.890625 C 17.472656 -22.628906 16.222656 -23 14.640625 -23 L 9.765625 -23 L 9.765625 -14.234375 Z M 14.765625 -14.234375 "/></g></g></g><g fill="#eb1f12" fill-opacity="0.502"><g transform="translate(121.717007, 266.473471)"><g><path d="M 3.4375 -28.703125 L 15.171875 -28.703125 C 16.890625 -28.703125 18.425781 -28.460938 19.78125 -27.984375 C 21.132812 -27.503906 22.28125 -26.828125 23.21875 -25.953125 C 24.164062 -25.078125 24.890625 -24.03125 25.390625 -22.8125 C 25.898438 -21.59375 26.15625 -20.25 26.15625 -18.78125 L 26.15625 -18.703125 C 26.15625 -17.023438 25.851562 -15.554688 25.25 -14.296875 C 24.65625 -13.046875 23.832031 -11.992188 22.78125 -11.140625 C 21.726562 -10.296875 20.492188 -9.660156 19.078125 -9.234375 C 17.671875 -8.816406 16.164062 -8.609375 14.5625 -8.609375 L 9.765625 -8.609375 L 9.765625 0 L 3.4375 0 Z M 14.765625 -14.234375 C 16.347656 -14.234375 17.578125 -14.648438 18.453125 -15.484375 C 19.328125 -16.316406 19.765625 -17.347656 19.765625 -18.578125 L 19.765625 -18.65625 C 19.765625 -20.070312 19.304688 -21.148438 18.390625 -21.890625 C 17.472656 -22.628906 16.222656 -23 14.640625 -23 L 9.765625 -23 L 9.765625 -14.234375 Z M 14.765625 -14.234375 "/></g></g></g><g fill="#eb1f12" fill-opacity="1"><g transform="translate(119.905213, 264.66168)"><g><path d="M 3.4375 -28.703125 L 15.171875 -28.703125 C 16.890625 -28.703125 18.425781 -28.460938 19.78125 -27.984375 C 21.132812 -27.503906 22.28125 -26.828125 23.21875 -25.953125 C 24.164062 -25.078125 24.890625 -24.03125 25.390625 -22.8125 C 25.898438 -21.59375 26.15625 -20.25 26.15625 -18.78125 L 26.15625 -18.703125 C 26.15625 -17.023438 25.851562 -15.554688 25.25 -14.296875 C 24.65625 -13.046875 23.832031 -11.992188 22.78125 -11.140625 C 21.726562 -10.296875 20.492188 -9.660156 19.078125 -9.234375 C 17.671875 -8.816406 16.164062 -8.609375 14.5625 -8.609375 L 9.765625 -8.609375 L 9.765625 0 L 3.4375 0 Z M 14.765625 -14.234375 C 16.347656 -14.234375 17.578125 -14.648438 18.453125 -15.484375 C 19.328125 -16.316406 19.765625 -17.347656 19.765625 -18.578125 L 19.765625 -18.65625 C 19.765625 -20.070312 19.304688 -21.148438 18.390625 -21.890625 C 17.472656 -22.628906 16.222656 -23 14.640625 -23 L 9.765625 -23 L 9.765625 -14.234375 Z M 14.765625 -14.234375 "/></g></g></g><g fill="#eb1f12" fill-opacity="0.302"><g transform="translate(150.912959, 268.174786)"><g><path d="M 17.390625 0.484375 C 15.171875 0.484375 13.128906 0.0976562 11.265625 -0.671875 C 9.410156 -1.453125 7.804688 -2.503906 6.453125 -3.828125 C 5.097656 -5.160156 4.046875 -6.71875 3.296875 -8.5 C 2.546875 -10.289062 2.171875 -12.210938 2.171875 -14.265625 L 2.171875 -14.34375 C 2.171875 -16.394531 2.550781 -18.316406 3.3125 -20.109375 C 4.082031 -21.898438 5.144531 -23.472656 6.5 -24.828125 C 7.851562 -26.179688 9.460938 -27.242188 11.328125 -28.015625 C 13.203125 -28.796875 15.25 -29.1875 17.46875 -29.1875 C 19.675781 -29.1875 21.707031 -28.796875 23.5625 -28.015625 C 25.425781 -27.242188 27.035156 -26.191406 28.390625 -24.859375 C 29.742188 -23.535156 30.796875 -21.976562 31.546875 -20.1875 C 32.296875 -18.394531 32.671875 -16.476562 32.671875 -14.4375 L 32.671875 -14.34375 C 32.671875 -12.300781 32.285156 -10.382812 31.515625 -8.59375 C 30.753906 -6.800781 29.695312 -5.226562 28.34375 -3.875 C 27 -2.519531 25.390625 -1.453125 23.515625 -0.671875 C 21.640625 0.0976562 19.597656 0.484375 17.390625 0.484375 Z M 17.46875 -5.328125 C 18.726562 -5.328125 19.890625 -5.554688 20.953125 -6.015625 C 22.015625 -6.484375 22.921875 -7.128906 23.671875 -7.953125 C 24.429688 -8.773438 25.019531 -9.722656 25.4375 -10.796875 C 25.863281 -11.878906 26.078125 -13.035156 26.078125 -14.265625 L 26.078125 -14.34375 C 26.078125 -15.570312 25.863281 -16.734375 25.4375 -17.828125 C 25.019531 -18.921875 24.421875 -19.878906 23.640625 -20.703125 C 22.859375 -21.523438 21.929688 -22.175781 20.859375 -22.65625 C 19.796875 -23.132812 18.640625 -23.375 17.390625 -23.375 C 16.097656 -23.375 14.925781 -23.140625 13.875 -22.671875 C 12.820312 -22.203125 11.921875 -21.554688 11.171875 -20.734375 C 10.421875 -19.921875 9.832031 -18.972656 9.40625 -17.890625 C 8.988281 -16.816406 8.78125 -15.664062 8.78125 -14.4375 L 8.78125 -14.34375 C 8.78125 -13.113281 8.988281 -11.953125 9.40625 -10.859375 C 9.832031 -9.765625 10.429688 -8.804688 11.203125 -7.984375 C 11.984375 -7.171875 12.898438 -6.523438 13.953125 -6.046875 C 15.003906 -5.566406 16.175781 -5.328125 17.46875 -5.328125 Z M 17.46875 -5.328125 "/></g></g></g><g fill="#eb1f12" fill-opacity="0.502"><g transform="translate(149.101166, 266.362992)"><g><path d="M 17.390625 0.484375 C 15.171875 0.484375 13.128906 0.0976562 11.265625 -0.671875 C 9.410156 -1.453125 7.804688 -2.503906 6.453125 -3.828125 C 5.097656 -5.160156 4.046875 -6.71875 3.296875 -8.5 C 2.546875 -10.289062 2.171875 -12.210938 2.171875 -14.265625 L 2.171875 -14.34375 C 2.171875 -16.394531 2.550781 -18.316406 3.3125 -20.109375 C 4.082031 -21.898438 5.144531 -23.472656 6.5 -24.828125 C 7.851562 -26.179688 9.460938 -27.242188 11.328125 -28.015625 C 13.203125 -28.796875 15.25 -29.1875 17.46875 -29.1875 C 19.675781 -29.1875 21.707031 -28.796875 23.5625 -28.015625 C 25.425781 -27.242188 27.035156 -26.191406 28.390625 -24.859375 C 29.742188 -23.535156 30.796875 -21.976562 31.546875 -20.1875 C 32.296875 -18.394531 32.671875 -16.476562 32.671875 -14.4375 L 32.671875 -14.34375 C 32.671875 -12.300781 32.285156 -10.382812 31.515625 -8.59375 C 30.753906 -6.800781 29.695312 -5.226562 28.34375 -3.875 C 27 -2.519531 25.390625 -1.453125 23.515625 -0.671875 C 21.640625 0.0976562 19.597656 0.484375 17.390625 0.484375 Z M 17.46875 -5.328125 C 18.726562 -5.328125 19.890625 -5.554688 20.953125 -6.015625 C 22.015625 -6.484375 22.921875 -7.128906 23.671875 -7.953125 C 24.429688 -8.773438 25.019531 -9.722656 25.4375 -10.796875 C 25.863281 -11.878906 26.078125 -13.035156 26.078125 -14.265625 L 26.078125 -14.34375 C 26.078125 -15.570312 25.863281 -16.734375 25.4375 -17.828125 C 25.019531 -18.921875 24.421875 -19.878906 23.640625 -20.703125 C 22.859375 -21.523438 21.929688 -22.175781 20.859375 -22.65625 C 19.796875 -23.132812 18.640625 -23.375 17.390625 -23.375 C 16.097656 -23.375 14.925781 -23.140625 13.875 -22.671875 C 12.820312 -22.203125 11.921875 -21.554688 11.171875 -20.734375 C 10.421875 -19.921875 9.832031 -18.972656 9.40625 -17.890625 C 8.988281 -16.816406 8.78125 -15.664062 8.78125 -14.4375 L 8.78125 -14.34375 C 8.78125 -13.113281 8.988281 -11.953125 9.40625 -10.859375 C 9.832031 -9.765625 10.429688 -8.804688 11.203125 -7.984375 C 11.984375 -7.171875 12.898438 -6.523438 13.953125 -6.046875 C 15.003906 -5.566406 16.175781 -5.328125 17.46875 -5.328125 Z M 17.46875 -5.328125 "/></g></g></g><g fill="#eb1f12" fill-opacity="1"><g transform="translate(147.289375, 264.551201)"><g><path d="M 17.390625 0.484375 C 15.171875 0.484375 13.128906 0.0976562 11.265625 -0.671875 C 9.410156 -1.453125 7.804688 -2.503906 6.453125 -3.828125 C 5.097656 -5.160156 4.046875 -6.71875 3.296875 -8.5 C 2.546875 -10.289062 2.171875 -12.210938 2.171875 -14.265625 L 2.171875 -14.34375 C 2.171875 -16.394531 2.550781 -18.316406 3.3125 -20.109375 C 4.082031 -21.898438 5.144531 -23.472656 6.5 -24.828125 C 7.851562 -26.179688 9.460938 -27.242188 11.328125 -28.015625 C 13.203125 -28.796875 15.25 -29.1875 17.46875 -29.1875 C 19.675781 -29.1875 21.707031 -28.796875 23.5625 -28.015625 C 25.425781 -27.242188 27.035156 -26.191406 28.390625 -24.859375 C 29.742188 -23.535156 30.796875 -21.976562 31.546875 -20.1875 C 32.296875 -18.394531 32.671875 -16.476562 32.671875 -14.4375 L 32.671875 -14.34375 C 32.671875 -12.300781 32.285156 -10.382812 31.515625 -8.59375 C 30.753906 -6.800781 29.695312 -5.226562 28.34375 -3.875 C 27 -2.519531 25.390625 -1.453125 23.515625 -0.671875 C 21.640625 0.0976562 19.597656 0.484375 17.390625 0.484375 Z M 17.46875 -5.328125 C 18.726562 -5.328125 19.890625 -5.554688 20.953125 -6.015625 C 22.015625 -6.484375 22.921875 -7.128906 23.671875 -7.953125 C 24.429688 -8.773438 25.019531 -9.722656 25.4375 -10.796875 C 25.863281 -11.878906 26.078125 -13.035156 26.078125 -14.265625 L 26.078125 -14.34375 C 26.078125 -15.570312 25.863281 -16.734375 25.4375 -17.828125 C 25.019531 -18.921875 24.421875 -19.878906 23.640625 -20.703125 C 22.859375 -21.523438 21.929688 -22.175781 20.859375 -22.65625 C 19.796875 -23.132812 18.640625 -23.375 17.390625 -23.375 C 16.097656 -23.375 14.925781 -23.140625 13.875 -22.671875 C 12.820312 -22.203125 11.921875 -21.554688 11.171875 -20.734375 C 10.421875 -19.921875 9.832031 -18.972656 9.40625 -17.890625 C 8.988281 -16.816406 8.78125 -15.664062 8.78125 -14.4375 L 8.78125 -14.34375 C 8.78125 -13.113281 8.988281 -11.953125 9.40625 -10.859375 C 9.832031 -9.765625 10.429688 -8.804688 11.203125 -7.984375 C 11.984375 -7.171875 12.898438 -6.523438 13.953125 -6.046875 C 15.003906 -5.566406 16.175781 -5.328125 17.46875 -5.328125 Z M 17.46875 -5.328125 "/></g></g></g><g fill="#eb1f12" fill-opacity="0.302"><g transform="translate(181.127762, 268.230038)"><g><path d="M 3.4375 -28.703125 L 9.765625 -28.703125 L 9.765625 -5.734375 L 24.0625 -5.734375 L 24.0625 0 L 3.4375 0 Z M 3.4375 -28.703125 "/></g></g></g><g fill="#eb1f12" fill-opacity="0.502"><g transform="translate(179.315969, 266.418247)"><g><path d="M 3.4375 -28.703125 L 9.765625 -28.703125 L 9.765625 -5.734375 L 24.0625 -5.734375 L 24.0625 0 L 3.4375 0 Z M 3.4375 -28.703125 "/></g></g></g><g fill="#eb1f12" fill-opacity="1"><g transform="translate(177.504178, 264.606454)"><g><path d="M 3.4375 -28.703125 L 9.765625 -28.703125 L 9.765625 -5.734375 L 24.0625 -5.734375 L 24.0625 0 L 3.4375 0 Z M 3.4375 -28.703125 "/></g></g></g><g fill="#eb1f12" fill-opacity="0.302"><g transform="translate(204.414015, 268.230038)"><g><path d="M 3.4375 -28.703125 L 9.765625 -28.703125 L 9.765625 -5.734375 L 24.0625 -5.734375 L 24.0625 0 L 3.4375 0 Z M 3.4375 -28.703125 "/></g></g></g><g fill="#eb1f12" fill-opacity="0.502"><g transform="translate(202.602222, 266.418247)"><g><path d="M 3.4375 -28.703125 L 9.765625 -28.703125 L 9.765625 -5.734375 L 24.0625 -5.734375 L 24.0625 0 L 3.4375 0 Z M 3.4375 -28.703125 "/></g></g></g><g fill="#eb1f12" fill-opacity="1"><g transform="translate(200.790431, 264.606454)"><g><path d="M 3.4375 -28.703125 L 9.765625 -28.703125 L 9.765625 -5.734375 L 24.0625 -5.734375 L 24.0625 0 L 3.4375 0 Z M 3.4375 -28.703125 "/></g></g></g><g clip-path="url(#b7009c75c1)"><path fill="#eb1f12" d="M 234.515625 257.761719 L 243.617188 250.933594 L 234.515625 244.109375 Z M 237.550781 235.765625 C 229.171875 235.765625 222.382812 242.554688 222.382812 250.933594 C 222.382812 259.316406 229.171875 266.101562 237.550781 266.101562 C 245.929688 266.101562 252.71875 259.316406 252.71875 250.933594 C 252.71875 242.554688 245.929688 235.765625 237.550781 235.765625 Z M 237.550781 263.070312 C 230.863281 263.070312 225.414062 257.625 225.414062 250.933594 C 225.414062 244.246094 230.863281 238.800781 237.550781 238.800781 C 244.242188 238.800781 249.6875 244.246094 249.6875 250.933594 C 249.6875 257.625 244.242188 263.070312 237.550781 263.070312 Z M 237.550781 263.070312 " fill-opacity="1" fill-rule="nonzero"/></g><g fill="#eb1f12" fill-opacity="0.302"><g transform="translate(223.750946, 268.174786)"><g><path d="M 17.390625 0.484375 C 15.171875 0.484375 13.128906 0.0976562 11.265625 -0.671875 C 9.410156 -1.453125 7.804688 -2.503906 6.453125 -3.828125 C 5.097656 -5.160156 4.046875 -6.71875 3.296875 -8.5 C 2.546875 -10.289062 2.171875 -12.210938 2.171875 -14.265625 L 2.171875 -14.34375 C 2.171875 -16.394531 2.550781 -18.316406 3.3125 -20.109375 C 4.082031 -21.898438 5.144531 -23.472656 6.5 -24.828125 C 7.851562 -26.179688 9.460938 -27.242188 11.328125 -28.015625 C 13.203125 -28.796875 15.25 -29.1875 17.46875 -29.1875 C 19.675781 -29.1875 21.707031 -28.796875 23.5625 -28.015625 C 25.425781 -27.242188 27.035156 -26.191406 28.390625 -24.859375 C 29.742188 -23.535156 30.796875 -21.976562 31.546875 -20.1875 C 32.296875 -18.394531 32.671875 -16.476562 32.671875 -14.4375 L 32.671875 -14.34375 C 32.671875 -12.300781 32.285156 -10.382812 31.515625 -8.59375 C 30.753906 -6.800781 29.695312 -5.226562 28.34375 -3.875 C 27 -2.519531 25.390625 -1.453125 23.515625 -0.671875 C 21.640625 0.0976562 19.597656 0.484375 17.390625 0.484375 Z M 17.46875 -5.328125 C 18.726562 -5.328125 19.890625 -5.554688 20.953125 -6.015625 C 22.015625 -6.484375 22.921875 -7.128906 23.671875 -7.953125 C 24.429688 -8.773438 25.019531 -9.722656 25.4375 -10.796875 C 25.863281 -11.878906 26.078125 -13.035156 26.078125 -14.265625 L 26.078125 -14.34375 C 26.078125 -15.570312 25.863281 -16.734375 25.4375 -17.828125 C 25.019531 -18.921875 24.421875 -19.878906 23.640625 -20.703125 C 22.859375 -21.523438 21.929688 -22.175781 20.859375 -22.65625 C 19.796875 -23.132812 18.640625 -23.375 17.390625 -23.375 C 16.097656 -23.375 14.925781 -23.140625 13.875 -22.671875 C 12.820312 -22.203125 11.921875 -21.554688 11.171875 -20.734375 C 10.421875 -19.921875 9.832031 -18.972656 9.40625 -17.890625 C 8.988281 -16.816406 8.78125 -15.664062 8.78125 -14.4375 L 8.78125 -14.34375 C 8.78125 -13.113281 8.988281 -11.953125 9.40625 -10.859375 C 9.832031 -9.765625 10.429688 -8.804688 11.203125 -7.984375 C 11.984375 -7.171875 12.898438 -6.523438 13.953125 -6.046875 C 15.003906 -5.566406 16.175781 -5.328125 17.46875 -5.328125 Z M 17.46875 -5.328125 "/></g></g></g><g fill="#eb1f12" fill-opacity="0.502"><g transform="translate(221.939155, 266.362992)"><g><path d="M 17.390625 0.484375 C 15.171875 0.484375 13.128906 0.0976562 11.265625 -0.671875 C 9.410156 -1.453125 7.804688 -2.503906 6.453125 -3.828125 C 5.097656 -5.160156 4.046875 -6.71875 3.296875 -8.5 C 2.546875 -10.289062 2.171875 -12.210938 2.171875 -14.265625 L 2.171875 -14.34375 C 2.171875 -16.394531 2.550781 -18.316406 3.3125 -20.109375 C 4.082031 -21.898438 5.144531 -23.472656 6.5 -24.828125 C 7.851562 -26.179688 9.460938 -27.242188 11.328125 -28.015625 C 13.203125 -28.796875 15.25 -29.1875 17.46875 -29.1875 C 19.675781 -29.1875 21.707031 -28.796875 23.5625 -28.015625 C 25.425781 -27.242188 27.035156 -26.191406 28.390625 -24.859375 C 29.742188 -23.535156 30.796875 -21.976562 31.546875 -20.1875 C 32.296875 -18.394531 32.671875 -16.476562 32.671875 -14.4375 L 32.671875 -14.34375 C 32.671875 -12.300781 32.285156 -10.382812 31.515625 -8.59375 C 30.753906 -6.800781 29.695312 -5.226562 28.34375 -3.875 C 27 -2.519531 25.390625 -1.453125 23.515625 -0.671875 C 21.640625 0.0976562 19.597656 0.484375 17.390625 0.484375 Z M 17.46875 -5.328125 C 18.726562 -5.328125 19.890625 -5.554688 20.953125 -6.015625 C 22.015625 -6.484375 22.921875 -7.128906 23.671875 -7.953125 C 24.429688 -8.773438 25.019531 -9.722656 25.4375 -10.796875 C 25.863281 -11.878906 26.078125 -13.035156 26.078125 -14.265625 L 26.078125 -14.34375 C 26.078125 -15.570312 25.863281 -16.734375 25.4375 -17.828125 C 25.019531 -18.921875 24.421875 -19.878906 23.640625 -20.703125 C 22.859375 -21.523438 21.929688 -22.175781 20.859375 -22.65625 C 19.796875 -23.132812 18.640625 -23.375 17.390625 -23.375 C 16.097656 -23.375 14.925781 -23.140625 13.875 -22.671875 C 12.820312 -22.203125 11.921875 -21.554688 11.171875 -20.734375 C 10.421875 -19.921875 9.832031 -18.972656 9.40625 -17.890625 C 8.988281 -16.816406 8.78125 -15.664062 8.78125 -14.4375 L 8.78125 -14.34375 C 8.78125 -13.113281 8.988281 -11.953125 9.40625 -10.859375 C 9.832031 -9.765625 10.429688 -8.804688 11.203125 -7.984375 C 11.984375 -7.171875 12.898438 -6.523438 13.953125 -6.046875 C 15.003906 -5.566406 16.175781 -5.328125 17.46875 -5.328125 Z M 17.46875 -5.328125 "/></g></g></g><g fill="#eb1f12" fill-opacity="1"><g transform="translate(220.127364, 264.551201)"><g><path d="M 17.390625 0.484375 C 15.171875 0.484375 13.128906 0.0976562 11.265625 -0.671875 C 9.410156 -1.453125 7.804688 -2.503906 6.453125 -3.828125 C 5.097656 -5.160156 4.046875 -6.71875 3.296875 -8.5 C 2.546875 -10.289062 2.171875 -12.210938 2.171875 -14.265625 L 2.171875 -14.34375 C 2.171875 -16.394531 2.550781 -18.316406 3.3125 -20.109375 C 4.082031 -21.898438 5.144531 -23.472656 6.5 -24.828125 C 7.851562 -26.179688 9.460938 -27.242188 11.328125 -28.015625 C 13.203125 -28.796875 15.25 -29.1875 17.46875 -29.1875 C 19.675781 -29.1875 21.707031 -28.796875 23.5625 -28.015625 C 25.425781 -27.242188 27.035156 -26.191406 28.390625 -24.859375 C 29.742188 -23.535156 30.796875 -21.976562 31.546875 -20.1875 C 32.296875 -18.394531 32.671875 -16.476562 32.671875 -14.4375 L 32.671875 -14.34375 C 32.671875 -12.300781 32.285156 -10.382812 31.515625 -8.59375 C 30.753906 -6.800781 29.695312 -5.226562 28.34375 -3.875 C 27 -2.519531 25.390625 -1.453125 23.515625 -0.671875 C 21.640625 0.0976562 19.597656 0.484375 17.390625 0.484375 Z M 17.46875 -5.328125 C 18.726562 -5.328125 19.890625 -5.554688 20.953125 -6.015625 C 22.015625 -6.484375 22.921875 -7.128906 23.671875 -7.953125 C 24.429688 -8.773438 25.019531 -9.722656 25.4375 -10.796875 C 25.863281 -11.878906 26.078125 -13.035156 26.078125 -14.265625 L 26.078125 -14.34375 C 26.078125 -15.570312 25.863281 -16.734375 25.4375 -17.828125 C 25.019531 -18.921875 24.421875 -19.878906 23.640625 -20.703125 C 22.859375 -21.523438 21.929688 -22.175781 20.859375 -22.65625 C 19.796875 -23.132812 18.640625 -23.375 17.390625 -23.375 C 16.097656 -23.375 14.925781 -23.140625 13.875 -22.671875 C 12.820312 -22.203125 11.921875 -21.554688 11.171875 -20.734375 C 10.421875 -19.921875 9.832031 -18.972656 9.40625 -17.890625 C 8.988281 -16.816406 8.78125 -15.664062 8.78125 -14.4375 L 8.78125 -14.34375 C 8.78125 -13.113281 8.988281 -11.953125 9.40625 -10.859375 C 9.832031 -9.765625 10.429688 -8.804688 11.203125 -7.984375 C 11.984375 -7.171875 12.898438 -6.523438 13.953125 -6.046875 C 15.003906 -5.566406 16.175781 -5.328125 17.46875 -5.328125 Z M 17.46875 -5.328125 "/></g></g></g><g fill="#eb1f12" fill-opacity="0.302"><g transform="translate(256.277155, 268.174786)"><g><path d="M 3.4375 -28.703125 L 9.265625 -28.703125 L 22.71875 -11.03125 L 22.71875 -28.703125 L 28.953125 -28.703125 L 28.953125 0 L 23.578125 0 L 9.671875 -18.25 L 9.671875 0 L 3.4375 0 Z M 3.4375 -28.703125 "/></g></g></g><g fill="#eb1f12" fill-opacity="0.502"><g transform="translate(254.465349, 266.362992)"><g><path d="M 3.4375 -28.703125 L 9.265625 -28.703125 L 22.71875 -11.03125 L 22.71875 -28.703125 L 28.953125 -28.703125 L 28.953125 0 L 23.578125 0 L 9.671875 -18.25 L 9.671875 0 L 3.4375 0 Z M 3.4375 -28.703125 "/></g></g></g><g fill="#eb1f12" fill-opacity="1"><g transform="translate(252.653573, 264.551201)"><g><path d="M 3.4375 -28.703125 L 9.265625 -28.703125 L 22.71875 -11.03125 L 22.71875 -28.703125 L 28.953125 -28.703125 L 28.953125 0 L 23.578125 0 L 9.671875 -18.25 L 9.671875 0 L 3.4375 0 Z M 3.4375 -28.703125 "/></g></g></g></svg>